<?xml version="1.0" encoding="utf-8" standalone="no"?>
<!DOCTYPE svg PUBLIC "-//W3C//DTD SVG 1.1//EN"
  "http://www.w3.org/Graphics/SVG/1.1/DTD/svg11.dtd">
<svg height="269.581584pt" version="1.1" viewBox="0 0 389.105 269.581584" width="389.105pt" xmlns="http://www.w3.org/2000/svg" xmlns:xlink="http://www.w3.org/1999/xlink">
 <metadata>
  <rdf:RDF xmlns:cc="http://creativecommons.org/ns#" xmlns:dc="http://purl.org/dc/elements/1.1/" xmlns:rdf="http://www.w3.org/1999/02/22-rdf-syntax-ns#">
   <cc:Work>
    <dc:type rdf:resource="http://purl.org/dc/dcmitype/StillImage"/>
    <dc:date>2021-08-20T18:32:38.234474</dc:date>
    <dc:format>image/svg+xml</dc:format>
    <dc:creator>
     <cc:Agent>
      <dc:title>Matplotlib v3.4.2, https://matplotlib.org/</dc:title>
     </cc:Agent>
    </dc:creator>
   </cc:Work>
  </rdf:RDF>
 </metadata>
 <defs>
  <style type="text/css">*{stroke-linecap:butt;stroke-linejoin:round;}</style>
 </defs>
 <g id="figure_1">
  <g id="patch_1">
   <path d="M 0 269.581584 
L 389.105 269.581584 
L 389.105 0 
L 0 0 
z
" style="fill:#ffffff;"/>
  </g>
  <g id="axes_1">
   <g id="patch_2">
    <path d="M 47.105 227.847365 
L 381.905 227.847365 
L 381.905 10.407365 
L 47.105 10.407365 
z
" style="fill:#eaeaf2;"/>
   </g>
   <g id="matplotlib.axis_1">
    <g id="xtick_1">
     <g id="line2d_1">
      <path clip-path="url(#pd9b9ce3e14)" d="M 69.118113 227.847365 
L 69.118113 10.407365 
" style="fill:none;stroke:#ffffff;stroke-linecap:round;"/>
     </g>
     <g id="text_1">
      <!-- 0 -->
      <g style="fill:#262626;" transform="translate(66.059597 245.220959)scale(0.11 -0.11)">
       <defs>
        <path d="M 266 2259 
Q 266 3072 433 3567 
Q 600 4063 929 4331 
Q 1259 4600 1759 4600 
Q 2128 4600 2406 4451 
Q 2684 4303 2865 4023 
Q 3047 3744 3150 3342 
Q 3253 2941 3253 2259 
Q 3253 1453 3087 958 
Q 2922 463 2592 192 
Q 2263 -78 1759 -78 
Q 1097 -78 719 397 
Q 266 969 266 2259 
z
M 844 2259 
Q 844 1131 1108 757 
Q 1372 384 1759 384 
Q 2147 384 2411 759 
Q 2675 1134 2675 2259 
Q 2675 3391 2411 3762 
Q 2147 4134 1753 4134 
Q 1366 4134 1134 3806 
Q 844 3388 844 2259 
z
" id="ArialMT-30" transform="scale(0.015625)"/>
       </defs>
       <use xlink:href="#ArialMT-30"/>
      </g>
     </g>
    </g>
    <g id="xtick_2">
     <g id="line2d_2">
      <path clip-path="url(#pd9b9ce3e14)" d="M 129.391112 227.847365 
L 129.391112 10.407365 
" style="fill:none;stroke:#ffffff;stroke-linecap:round;"/>
     </g>
     <g id="text_2">
      <!-- 1 -->
      <g style="fill:#262626;" transform="translate(126.332596 245.220959)scale(0.11 -0.11)">
       <defs>
        <path d="M 2384 0 
L 1822 0 
L 1822 3584 
Q 1619 3391 1289 3197 
Q 959 3003 697 2906 
L 697 3450 
Q 1169 3672 1522 3987 
Q 1875 4303 2022 4600 
L 2384 4600 
L 2384 0 
z
" id="ArialMT-31" transform="scale(0.015625)"/>
       </defs>
       <use xlink:href="#ArialMT-31"/>
      </g>
     </g>
    </g>
    <g id="xtick_3">
     <g id="line2d_3">
      <path clip-path="url(#pd9b9ce3e14)" d="M 189.664111 227.847365 
L 189.664111 10.407365 
" style="fill:none;stroke:#ffffff;stroke-linecap:round;"/>
     </g>
     <g id="text_3">
      <!-- 2 -->
      <g style="fill:#262626;" transform="translate(186.605595 245.220959)scale(0.11 -0.11)">
       <defs>
        <path d="M 3222 541 
L 3222 0 
L 194 0 
Q 188 203 259 391 
Q 375 700 629 1000 
Q 884 1300 1366 1694 
Q 2113 2306 2375 2664 
Q 2638 3022 2638 3341 
Q 2638 3675 2398 3904 
Q 2159 4134 1775 4134 
Q 1369 4134 1125 3890 
Q 881 3647 878 3216 
L 300 3275 
Q 359 3922 746 4261 
Q 1134 4600 1788 4600 
Q 2447 4600 2831 4234 
Q 3216 3869 3216 3328 
Q 3216 3053 3103 2787 
Q 2991 2522 2730 2228 
Q 2469 1934 1863 1422 
Q 1356 997 1212 845 
Q 1069 694 975 541 
L 3222 541 
z
" id="ArialMT-32" transform="scale(0.015625)"/>
       </defs>
       <use xlink:href="#ArialMT-32"/>
      </g>
     </g>
    </g>
    <g id="xtick_4">
     <g id="line2d_4">
      <path clip-path="url(#pd9b9ce3e14)" d="M 249.93711 227.847365 
L 249.93711 10.407365 
" style="fill:none;stroke:#ffffff;stroke-linecap:round;"/>
     </g>
     <g id="text_4">
      <!-- 3 -->
      <g style="fill:#262626;" transform="translate(246.878594 245.220959)scale(0.11 -0.11)">
       <defs>
        <path d="M 269 1209 
L 831 1284 
Q 928 806 1161 595 
Q 1394 384 1728 384 
Q 2125 384 2398 659 
Q 2672 934 2672 1341 
Q 2672 1728 2419 1979 
Q 2166 2231 1775 2231 
Q 1616 2231 1378 2169 
L 1441 2663 
Q 1497 2656 1531 2656 
Q 1891 2656 2178 2843 
Q 2466 3031 2466 3422 
Q 2466 3731 2256 3934 
Q 2047 4138 1716 4138 
Q 1388 4138 1169 3931 
Q 950 3725 888 3313 
L 325 3413 
Q 428 3978 793 4289 
Q 1159 4600 1703 4600 
Q 2078 4600 2393 4439 
Q 2709 4278 2876 4000 
Q 3044 3722 3044 3409 
Q 3044 3113 2884 2869 
Q 2725 2625 2413 2481 
Q 2819 2388 3044 2092 
Q 3269 1797 3269 1353 
Q 3269 753 2831 336 
Q 2394 -81 1725 -81 
Q 1122 -81 723 278 
Q 325 638 269 1209 
z
" id="ArialMT-33" transform="scale(0.015625)"/>
       </defs>
       <use xlink:href="#ArialMT-33"/>
      </g>
     </g>
    </g>
    <g id="xtick_5">
     <g id="line2d_5">
      <path clip-path="url(#pd9b9ce3e14)" d="M 310.210108 227.847365 
L 310.210108 10.407365 
" style="fill:none;stroke:#ffffff;stroke-linecap:round;"/>
     </g>
     <g id="text_5">
      <!-- 4 -->
      <g style="fill:#262626;" transform="translate(307.151593 245.220959)scale(0.11 -0.11)">
       <defs>
        <path d="M 2069 0 
L 2069 1097 
L 81 1097 
L 81 1613 
L 2172 4581 
L 2631 4581 
L 2631 1613 
L 3250 1613 
L 3250 1097 
L 2631 1097 
L 2631 0 
L 2069 0 
z
M 2069 1613 
L 2069 3678 
L 634 1613 
L 2069 1613 
z
" id="ArialMT-34" transform="scale(0.015625)"/>
       </defs>
       <use xlink:href="#ArialMT-34"/>
      </g>
     </g>
    </g>
    <g id="xtick_6">
     <g id="line2d_6">
      <path clip-path="url(#pd9b9ce3e14)" d="M 370.483107 227.847365 
L 370.483107 10.407365 
" style="fill:none;stroke:#ffffff;stroke-linecap:round;"/>
     </g>
     <g id="text_6">
      <!-- 5 -->
      <g style="fill:#262626;" transform="translate(367.424592 245.220959)scale(0.11 -0.11)">
       <defs>
        <path d="M 266 1200 
L 856 1250 
Q 922 819 1161 601 
Q 1400 384 1738 384 
Q 2144 384 2425 690 
Q 2706 997 2706 1503 
Q 2706 1984 2436 2262 
Q 2166 2541 1728 2541 
Q 1456 2541 1237 2417 
Q 1019 2294 894 2097 
L 366 2166 
L 809 4519 
L 3088 4519 
L 3088 3981 
L 1259 3981 
L 1013 2750 
Q 1425 3038 1878 3038 
Q 2478 3038 2890 2622 
Q 3303 2206 3303 1553 
Q 3303 931 2941 478 
Q 2500 -78 1738 -78 
Q 1113 -78 717 272 
Q 322 622 266 1200 
z
" id="ArialMT-35" transform="scale(0.015625)"/>
       </defs>
       <use xlink:href="#ArialMT-35"/>
      </g>
     </g>
    </g>
    <g id="text_7">
     <!-- FLAIR -->
     <g style="fill:#262626;" transform="translate(197.501563 259.996584)scale(0.12 -0.12)">
      <defs>
       <path d="M 525 0 
L 525 4581 
L 3616 4581 
L 3616 4041 
L 1131 4041 
L 1131 2622 
L 3281 2622 
L 3281 2081 
L 1131 2081 
L 1131 0 
L 525 0 
z
" id="ArialMT-46" transform="scale(0.015625)"/>
       <path d="M 469 0 
L 469 4581 
L 1075 4581 
L 1075 541 
L 3331 541 
L 3331 0 
L 469 0 
z
" id="ArialMT-4c" transform="scale(0.015625)"/>
       <path d="M -9 0 
L 1750 4581 
L 2403 4581 
L 4278 0 
L 3588 0 
L 3053 1388 
L 1138 1388 
L 634 0 
L -9 0 
z
M 1313 1881 
L 2866 1881 
L 2388 3150 
Q 2169 3728 2063 4100 
Q 1975 3659 1816 3225 
L 1313 1881 
z
" id="ArialMT-41" transform="scale(0.015625)"/>
       <path d="M 597 0 
L 597 4581 
L 1203 4581 
L 1203 0 
L 597 0 
z
" id="ArialMT-49" transform="scale(0.015625)"/>
       <path d="M 503 0 
L 503 4581 
L 2534 4581 
Q 3147 4581 3465 4457 
Q 3784 4334 3975 4021 
Q 4166 3709 4166 3331 
Q 4166 2844 3850 2509 
Q 3534 2175 2875 2084 
Q 3116 1969 3241 1856 
Q 3506 1613 3744 1247 
L 4541 0 
L 3778 0 
L 3172 953 
Q 2906 1366 2734 1584 
Q 2563 1803 2427 1890 
Q 2291 1978 2150 2013 
Q 2047 2034 1813 2034 
L 1109 2034 
L 1109 0 
L 503 0 
z
M 1109 2559 
L 2413 2559 
Q 2828 2559 3062 2645 
Q 3297 2731 3419 2920 
Q 3541 3109 3541 3331 
Q 3541 3656 3305 3865 
Q 3069 4075 2559 4075 
L 1109 4075 
L 1109 2559 
z
" id="ArialMT-52" transform="scale(0.015625)"/>
      </defs>
      <use xlink:href="#ArialMT-46"/>
      <use x="61.083984" xlink:href="#ArialMT-4c"/>
      <use x="116.699219" xlink:href="#ArialMT-41"/>
      <use x="183.398438" xlink:href="#ArialMT-49"/>
      <use x="211.181641" xlink:href="#ArialMT-52"/>
     </g>
    </g>
   </g>
   <g id="matplotlib.axis_2">
    <g id="ytick_1">
     <g id="line2d_7">
      <path clip-path="url(#pd9b9ce3e14)" d="M 47.105 227.847365 
L 381.905 227.847365 
" style="fill:none;stroke:#ffffff;stroke-linecap:round;"/>
     </g>
     <g id="text_8">
      <!-- 0.0 -->
      <g style="fill:#262626;" transform="translate(22.315 231.784162)scale(0.11 -0.11)">
       <defs>
        <path d="M 581 0 
L 581 641 
L 1222 641 
L 1222 0 
L 581 0 
z
" id="ArialMT-2e" transform="scale(0.015625)"/>
       </defs>
       <use xlink:href="#ArialMT-30"/>
       <use x="55.615234" xlink:href="#ArialMT-2e"/>
       <use x="83.398438" xlink:href="#ArialMT-30"/>
      </g>
     </g>
    </g>
    <g id="ytick_2">
     <g id="line2d_8">
      <path clip-path="url(#pd9b9ce3e14)" d="M 47.105 200.758544 
L 381.905 200.758544 
" style="fill:none;stroke:#ffffff;stroke-linecap:round;"/>
     </g>
     <g id="text_9">
      <!-- 0.1 -->
      <g style="fill:#262626;" transform="translate(22.315 204.695341)scale(0.11 -0.11)">
       <use xlink:href="#ArialMT-30"/>
       <use x="55.615234" xlink:href="#ArialMT-2e"/>
       <use x="83.398438" xlink:href="#ArialMT-31"/>
      </g>
     </g>
    </g>
    <g id="ytick_3">
     <g id="line2d_9">
      <path clip-path="url(#pd9b9ce3e14)" d="M 47.105 173.669723 
L 381.905 173.669723 
" style="fill:none;stroke:#ffffff;stroke-linecap:round;"/>
     </g>
     <g id="text_10">
      <!-- 0.2 -->
      <g style="fill:#262626;" transform="translate(22.315 177.60652)scale(0.11 -0.11)">
       <use xlink:href="#ArialMT-30"/>
       <use x="55.615234" xlink:href="#ArialMT-2e"/>
       <use x="83.398438" xlink:href="#ArialMT-32"/>
      </g>
     </g>
    </g>
    <g id="ytick_4">
     <g id="line2d_10">
      <path clip-path="url(#pd9b9ce3e14)" d="M 47.105 146.580902 
L 381.905 146.580902 
" style="fill:none;stroke:#ffffff;stroke-linecap:round;"/>
     </g>
     <g id="text_11">
      <!-- 0.3 -->
      <g style="fill:#262626;" transform="translate(22.315 150.517699)scale(0.11 -0.11)">
       <use xlink:href="#ArialMT-30"/>
       <use x="55.615234" xlink:href="#ArialMT-2e"/>
       <use x="83.398438" xlink:href="#ArialMT-33"/>
      </g>
     </g>
    </g>
    <g id="ytick_5">
     <g id="line2d_11">
      <path clip-path="url(#pd9b9ce3e14)" d="M 47.105 119.492081 
L 381.905 119.492081 
" style="fill:none;stroke:#ffffff;stroke-linecap:round;"/>
     </g>
     <g id="text_12">
      <!-- 0.4 -->
      <g style="fill:#262626;" transform="translate(22.315 123.428878)scale(0.11 -0.11)">
       <use xlink:href="#ArialMT-30"/>
       <use x="55.615234" xlink:href="#ArialMT-2e"/>
       <use x="83.398438" xlink:href="#ArialMT-34"/>
      </g>
     </g>
    </g>
    <g id="ytick_6">
     <g id="line2d_12">
      <path clip-path="url(#pd9b9ce3e14)" d="M 47.105 92.40326 
L 381.905 92.40326 
" style="fill:none;stroke:#ffffff;stroke-linecap:round;"/>
     </g>
     <g id="text_13">
      <!-- 0.5 -->
      <g style="fill:#262626;" transform="translate(22.315 96.340057)scale(0.11 -0.11)">
       <use xlink:href="#ArialMT-30"/>
       <use x="55.615234" xlink:href="#ArialMT-2e"/>
       <use x="83.398438" xlink:href="#ArialMT-35"/>
      </g>
     </g>
    </g>
    <g id="ytick_7">
     <g id="line2d_13">
      <path clip-path="url(#pd9b9ce3e14)" d="M 47.105 65.314439 
L 381.905 65.314439 
" style="fill:none;stroke:#ffffff;stroke-linecap:round;"/>
     </g>
     <g id="text_14">
      <!-- 0.6 -->
      <g style="fill:#262626;" transform="translate(22.315 69.251236)scale(0.11 -0.11)">
       <defs>
        <path d="M 3184 3459 
L 2625 3416 
Q 2550 3747 2413 3897 
Q 2184 4138 1850 4138 
Q 1581 4138 1378 3988 
Q 1113 3794 959 3422 
Q 806 3050 800 2363 
Q 1003 2672 1297 2822 
Q 1591 2972 1913 2972 
Q 2475 2972 2870 2558 
Q 3266 2144 3266 1488 
Q 3266 1056 3080 686 
Q 2894 316 2569 119 
Q 2244 -78 1831 -78 
Q 1128 -78 684 439 
Q 241 956 241 2144 
Q 241 3472 731 4075 
Q 1159 4600 1884 4600 
Q 2425 4600 2770 4297 
Q 3116 3994 3184 3459 
z
M 888 1484 
Q 888 1194 1011 928 
Q 1134 663 1356 523 
Q 1578 384 1822 384 
Q 2178 384 2434 671 
Q 2691 959 2691 1453 
Q 2691 1928 2437 2201 
Q 2184 2475 1800 2475 
Q 1419 2475 1153 2201 
Q 888 1928 888 1484 
z
" id="ArialMT-36" transform="scale(0.015625)"/>
       </defs>
       <use xlink:href="#ArialMT-30"/>
       <use x="55.615234" xlink:href="#ArialMT-2e"/>
       <use x="83.398438" xlink:href="#ArialMT-36"/>
      </g>
     </g>
    </g>
    <g id="ytick_8">
     <g id="line2d_14">
      <path clip-path="url(#pd9b9ce3e14)" d="M 47.105 38.225618 
L 381.905 38.225618 
" style="fill:none;stroke:#ffffff;stroke-linecap:round;"/>
     </g>
     <g id="text_15">
      <!-- 0.7 -->
      <g style="fill:#262626;" transform="translate(22.315 42.162415)scale(0.11 -0.11)">
       <defs>
        <path d="M 303 3981 
L 303 4522 
L 3269 4522 
L 3269 4084 
Q 2831 3619 2401 2847 
Q 1972 2075 1738 1259 
Q 1569 684 1522 0 
L 944 0 
Q 953 541 1156 1306 
Q 1359 2072 1739 2783 
Q 2119 3494 2547 3981 
L 303 3981 
z
" id="ArialMT-37" transform="scale(0.015625)"/>
       </defs>
       <use xlink:href="#ArialMT-30"/>
       <use x="55.615234" xlink:href="#ArialMT-2e"/>
       <use x="83.398438" xlink:href="#ArialMT-37"/>
      </g>
     </g>
    </g>
    <g id="ytick_9">
     <g id="line2d_15">
      <path clip-path="url(#pd9b9ce3e14)" d="M 47.105 11.136797 
L 381.905 11.136797 
" style="fill:none;stroke:#ffffff;stroke-linecap:round;"/>
     </g>
     <g id="text_16">
      <!-- 0.8 -->
      <g style="fill:#262626;" transform="translate(22.315 15.073594)scale(0.11 -0.11)">
       <defs>
        <path d="M 1131 2484 
Q 781 2613 612 2850 
Q 444 3088 444 3419 
Q 444 3919 803 4259 
Q 1163 4600 1759 4600 
Q 2359 4600 2725 4251 
Q 3091 3903 3091 3403 
Q 3091 3084 2923 2848 
Q 2756 2613 2416 2484 
Q 2838 2347 3058 2040 
Q 3278 1734 3278 1309 
Q 3278 722 2862 322 
Q 2447 -78 1769 -78 
Q 1091 -78 675 323 
Q 259 725 259 1325 
Q 259 1772 486 2073 
Q 713 2375 1131 2484 
z
M 1019 3438 
Q 1019 3113 1228 2906 
Q 1438 2700 1772 2700 
Q 2097 2700 2305 2904 
Q 2513 3109 2513 3406 
Q 2513 3716 2298 3927 
Q 2084 4138 1766 4138 
Q 1444 4138 1231 3931 
Q 1019 3725 1019 3438 
z
M 838 1322 
Q 838 1081 952 856 
Q 1066 631 1291 507 
Q 1516 384 1775 384 
Q 2178 384 2440 643 
Q 2703 903 2703 1303 
Q 2703 1709 2433 1975 
Q 2163 2241 1756 2241 
Q 1359 2241 1098 1978 
Q 838 1716 838 1322 
z
" id="ArialMT-38" transform="scale(0.015625)"/>
       </defs>
       <use xlink:href="#ArialMT-30"/>
       <use x="55.615234" xlink:href="#ArialMT-2e"/>
       <use x="83.398438" xlink:href="#ArialMT-38"/>
      </g>
     </g>
    </g>
    <g id="text_17">
     <!-- Density -->
     <g style="fill:#262626;" transform="translate(15.789375 139.133615)rotate(-90)scale(0.12 -0.12)">
      <defs>
       <path d="M 494 0 
L 494 4581 
L 2072 4581 
Q 2606 4581 2888 4516 
Q 3281 4425 3559 4188 
Q 3922 3881 4101 3404 
Q 4281 2928 4281 2316 
Q 4281 1794 4159 1391 
Q 4038 988 3847 723 
Q 3656 459 3429 307 
Q 3203 156 2883 78 
Q 2563 0 2147 0 
L 494 0 
z
M 1100 541 
L 2078 541 
Q 2531 541 2789 625 
Q 3047 709 3200 863 
Q 3416 1078 3536 1442 
Q 3656 1806 3656 2325 
Q 3656 3044 3420 3430 
Q 3184 3816 2847 3947 
Q 2603 4041 2063 4041 
L 1100 4041 
L 1100 541 
z
" id="ArialMT-44" transform="scale(0.015625)"/>
       <path d="M 2694 1069 
L 3275 997 
Q 3138 488 2766 206 
Q 2394 -75 1816 -75 
Q 1088 -75 661 373 
Q 234 822 234 1631 
Q 234 2469 665 2931 
Q 1097 3394 1784 3394 
Q 2450 3394 2872 2941 
Q 3294 2488 3294 1666 
Q 3294 1616 3291 1516 
L 816 1516 
Q 847 969 1125 678 
Q 1403 388 1819 388 
Q 2128 388 2347 550 
Q 2566 713 2694 1069 
z
M 847 1978 
L 2700 1978 
Q 2663 2397 2488 2606 
Q 2219 2931 1791 2931 
Q 1403 2931 1139 2672 
Q 875 2413 847 1978 
z
" id="ArialMT-65" transform="scale(0.015625)"/>
       <path d="M 422 0 
L 422 3319 
L 928 3319 
L 928 2847 
Q 1294 3394 1984 3394 
Q 2284 3394 2536 3286 
Q 2788 3178 2913 3003 
Q 3038 2828 3088 2588 
Q 3119 2431 3119 2041 
L 3119 0 
L 2556 0 
L 2556 2019 
Q 2556 2363 2490 2533 
Q 2425 2703 2258 2804 
Q 2091 2906 1866 2906 
Q 1506 2906 1245 2678 
Q 984 2450 984 1813 
L 984 0 
L 422 0 
z
" id="ArialMT-6e" transform="scale(0.015625)"/>
       <path d="M 197 991 
L 753 1078 
Q 800 744 1014 566 
Q 1228 388 1613 388 
Q 2000 388 2187 545 
Q 2375 703 2375 916 
Q 2375 1106 2209 1216 
Q 2094 1291 1634 1406 
Q 1016 1563 777 1677 
Q 538 1791 414 1992 
Q 291 2194 291 2438 
Q 291 2659 392 2848 
Q 494 3038 669 3163 
Q 800 3259 1026 3326 
Q 1253 3394 1513 3394 
Q 1903 3394 2198 3281 
Q 2494 3169 2634 2976 
Q 2775 2784 2828 2463 
L 2278 2388 
Q 2241 2644 2061 2787 
Q 1881 2931 1553 2931 
Q 1166 2931 1000 2803 
Q 834 2675 834 2503 
Q 834 2394 903 2306 
Q 972 2216 1119 2156 
Q 1203 2125 1616 2013 
Q 2213 1853 2448 1751 
Q 2684 1650 2818 1456 
Q 2953 1263 2953 975 
Q 2953 694 2789 445 
Q 2625 197 2315 61 
Q 2006 -75 1616 -75 
Q 969 -75 630 194 
Q 291 463 197 991 
z
" id="ArialMT-73" transform="scale(0.015625)"/>
       <path d="M 425 3934 
L 425 4581 
L 988 4581 
L 988 3934 
L 425 3934 
z
M 425 0 
L 425 3319 
L 988 3319 
L 988 0 
L 425 0 
z
" id="ArialMT-69" transform="scale(0.015625)"/>
       <path d="M 1650 503 
L 1731 6 
Q 1494 -44 1306 -44 
Q 1000 -44 831 53 
Q 663 150 594 308 
Q 525 466 525 972 
L 525 2881 
L 113 2881 
L 113 3319 
L 525 3319 
L 525 4141 
L 1084 4478 
L 1084 3319 
L 1650 3319 
L 1650 2881 
L 1084 2881 
L 1084 941 
Q 1084 700 1114 631 
Q 1144 563 1211 522 
Q 1278 481 1403 481 
Q 1497 481 1650 503 
z
" id="ArialMT-74" transform="scale(0.015625)"/>
       <path d="M 397 -1278 
L 334 -750 
Q 519 -800 656 -800 
Q 844 -800 956 -737 
Q 1069 -675 1141 -563 
Q 1194 -478 1313 -144 
Q 1328 -97 1363 -6 
L 103 3319 
L 709 3319 
L 1400 1397 
Q 1534 1031 1641 628 
Q 1738 1016 1872 1384 
L 2581 3319 
L 3144 3319 
L 1881 -56 
Q 1678 -603 1566 -809 
Q 1416 -1088 1222 -1217 
Q 1028 -1347 759 -1347 
Q 597 -1347 397 -1278 
z
" id="ArialMT-79" transform="scale(0.015625)"/>
      </defs>
      <use xlink:href="#ArialMT-44"/>
      <use x="72.216797" xlink:href="#ArialMT-65"/>
      <use x="127.832031" xlink:href="#ArialMT-6e"/>
      <use x="183.447266" xlink:href="#ArialMT-73"/>
      <use x="233.447266" xlink:href="#ArialMT-69"/>
      <use x="255.664062" xlink:href="#ArialMT-74"/>
      <use x="283.447266" xlink:href="#ArialMT-79"/>
     </g>
    </g>
   </g>
   <g id="PolyCollection_1">
    <defs>
     <path d="M 62.323182 -41.787368 
L 62.323182 -41.734219 
L 63.852647 -41.734219 
L 65.382113 -41.734219 
L 66.911578 -41.734219 
L 68.441044 -41.734219 
L 69.970509 -41.734219 
L 71.499975 -41.734219 
L 73.02944 -41.734219 
L 74.558906 -41.734219 
L 76.088371 -41.734219 
L 77.617837 -41.734219 
L 79.147302 -41.734219 
L 80.676768 -41.734219 
L 82.206233 -41.734219 
L 83.735699 -41.734219 
L 85.265164 -41.734219 
L 86.79463 -41.734219 
L 88.324095 -41.734219 
L 89.853561 -41.734219 
L 91.383026 -41.734219 
L 92.912492 -41.734219 
L 94.441958 -41.734219 
L 95.971423 -41.734219 
L 97.500889 -41.734219 
L 99.030354 -41.734219 
L 100.55982 -41.734219 
L 102.089285 -41.734219 
L 103.618751 -41.734219 
L 105.148216 -41.734219 
L 106.677682 -41.734219 
L 108.207147 -41.734219 
L 109.736613 -41.734219 
L 111.266078 -41.734219 
L 112.795544 -41.734219 
L 114.325009 -41.734219 
L 115.854475 -41.734219 
L 117.38394 -41.734219 
L 118.913406 -41.734219 
L 120.442871 -41.734219 
L 121.972337 -41.734219 
L 123.501802 -41.734219 
L 125.031268 -41.734219 
L 126.560733 -41.734219 
L 128.090199 -41.734219 
L 129.619664 -41.734219 
L 131.14913 -41.734219 
L 132.678595 -41.734219 
L 134.208061 -41.734219 
L 135.737526 -41.734219 
L 137.266992 -41.734219 
L 138.796457 -41.734219 
L 140.325923 -41.734219 
L 141.855388 -41.734219 
L 143.384854 -41.734219 
L 144.914319 -41.734219 
L 146.443785 -41.734219 
L 147.97325 -41.734219 
L 149.502716 -41.734219 
L 151.032181 -41.734219 
L 152.561647 -41.734219 
L 154.091112 -41.734219 
L 155.620578 -41.734219 
L 157.150043 -41.734219 
L 158.679509 -41.734219 
L 160.208974 -41.734219 
L 161.73844 -41.734219 
L 163.267905 -41.734219 
L 164.797371 -41.734219 
L 166.326836 -41.734219 
L 167.856302 -41.734219 
L 169.385767 -41.734219 
L 170.915233 -41.734219 
L 172.444698 -41.734219 
L 173.974164 -41.734219 
L 175.50363 -41.734219 
L 177.033095 -41.734219 
L 178.562561 -41.734219 
L 180.092026 -41.734219 
L 181.621492 -41.734219 
L 183.150957 -41.734219 
L 184.680423 -41.734219 
L 186.209888 -41.734219 
L 187.739354 -41.734219 
L 189.268819 -41.734219 
L 190.798285 -41.734219 
L 192.32775 -41.734219 
L 193.857216 -41.734219 
L 195.386681 -41.734219 
L 196.916147 -41.734219 
L 198.445612 -41.734219 
L 199.975078 -41.734219 
L 201.504543 -41.734219 
L 203.034009 -41.734219 
L 204.563474 -41.734219 
L 206.09294 -41.734219 
L 207.622405 -41.734219 
L 209.151871 -41.734219 
L 210.681336 -41.734219 
L 212.210802 -41.734219 
L 213.740267 -41.734219 
L 215.269733 -41.734219 
L 216.799198 -41.734219 
L 218.328664 -41.734219 
L 219.858129 -41.734219 
L 221.387595 -41.734219 
L 222.91706 -41.734219 
L 224.446526 -41.734219 
L 225.975991 -41.734219 
L 227.505457 -41.734219 
L 229.034922 -41.734219 
L 230.564388 -41.734219 
L 232.093853 -41.734219 
L 233.623319 -41.734219 
L 235.152784 -41.734219 
L 236.68225 -41.734219 
L 238.211715 -41.734219 
L 239.741181 -41.734219 
L 241.270646 -41.734219 
L 242.800112 -41.734219 
L 244.329577 -41.734219 
L 245.859043 -41.734219 
L 247.388508 -41.734219 
L 248.917974 -41.734219 
L 250.447439 -41.734219 
L 251.976905 -41.734219 
L 253.50637 -41.734219 
L 255.035836 -41.734219 
L 256.565302 -41.734219 
L 258.094767 -41.734219 
L 259.624233 -41.734219 
L 261.153698 -41.734219 
L 262.683164 -41.734219 
L 264.212629 -41.734219 
L 265.742095 -41.734219 
L 267.27156 -41.734219 
L 268.801026 -41.734219 
L 270.330491 -41.734219 
L 271.859957 -41.734219 
L 273.389422 -41.734219 
L 274.918888 -41.734219 
L 276.448353 -41.734219 
L 277.977819 -41.734219 
L 279.507284 -41.734219 
L 281.03675 -41.734219 
L 282.566215 -41.734219 
L 284.095681 -41.734219 
L 285.625146 -41.734219 
L 287.154612 -41.734219 
L 288.684077 -41.734219 
L 290.213543 -41.734219 
L 291.743008 -41.734219 
L 293.272474 -41.734219 
L 294.801939 -41.734219 
L 296.331405 -41.734219 
L 297.86087 -41.734219 
L 299.390336 -41.734219 
L 300.919801 -41.734219 
L 302.449267 -41.734219 
L 303.978732 -41.734219 
L 305.508198 -41.734219 
L 307.037663 -41.734219 
L 308.567129 -41.734219 
L 310.096594 -41.734219 
L 311.62606 -41.734219 
L 313.155525 -41.734219 
L 314.684991 -41.734219 
L 316.214456 -41.734219 
L 317.743922 -41.734219 
L 319.273387 -41.734219 
L 320.802853 -41.734219 
L 322.332318 -41.734219 
L 323.861784 -41.734219 
L 325.391249 -41.734219 
L 326.920715 -41.734219 
L 328.45018 -41.734219 
L 329.979646 -41.734219 
L 331.509111 -41.734219 
L 333.038577 -41.734219 
L 334.568042 -41.734219 
L 336.097508 -41.734219 
L 337.626974 -41.734219 
L 339.156439 -41.734219 
L 340.685905 -41.734219 
L 342.21537 -41.734219 
L 343.744836 -41.734219 
L 345.274301 -41.734219 
L 346.803767 -41.734219 
L 348.333232 -41.734219 
L 349.862698 -41.734219 
L 351.392163 -41.734219 
L 352.921629 -41.734219 
L 354.451094 -41.734219 
L 355.98056 -41.734219 
L 357.510025 -41.734219 
L 359.039491 -41.734219 
L 360.568956 -41.734219 
L 362.098422 -41.734219 
L 363.627887 -41.734219 
L 365.157353 -41.734219 
L 366.686818 -41.734219 
L 366.686818 -41.781701 
L 366.686818 -41.781701 
L 365.157353 -41.797872 
L 363.627887 -41.818744 
L 362.098422 -41.845403 
L 360.568956 -41.879095 
L 359.039491 -41.921229 
L 357.510025 -41.973366 
L 355.98056 -42.037199 
L 354.451094 -42.114521 
L 352.921629 -42.207186 
L 351.392163 -42.317054 
L 349.862698 -42.445918 
L 348.333232 -42.595433 
L 346.803767 -42.76703 
L 345.274301 -42.961822 
L 343.744836 -43.180518 
L 342.21537 -43.423339 
L 340.685905 -43.689939 
L 339.156439 -43.979348 
L 337.626974 -44.289933 
L 336.097508 -44.619386 
L 334.568042 -44.964731 
L 333.038577 -45.32237 
L 331.509111 -45.688153 
L 329.979646 -46.057468 
L 328.45018 -46.425367 
L 326.920715 -46.786694 
L 325.391249 -47.13624 
L 323.861784 -47.468892 
L 322.332318 -47.779789 
L 320.802853 -48.064475 
L 319.273387 -48.319034 
L 317.743922 -48.540221 
L 316.214456 -48.725574 
L 314.684991 -48.873509 
L 313.155525 -48.983402 
L 311.62606 -49.055646 
L 310.096594 -49.091691 
L 308.567129 -49.09407 
L 307.037663 -49.066391 
L 305.508198 -49.013313 
L 303.978732 -48.940489 
L 302.449267 -48.85448 
L 300.919801 -48.762632 
L 299.390336 -48.672927 
L 297.86087 -48.593793 
L 296.331405 -48.533883 
L 294.801939 -48.501837 
L 293.272474 -48.506017 
L 291.743008 -48.554246 
L 290.213543 -48.653545 
L 288.684077 -48.809892 
L 287.154612 -49.028018 
L 285.625146 -49.311244 
L 284.095681 -49.661377 
L 282.566215 -50.078674 
L 281.03675 -50.561873 
L 279.507284 -51.108298 
L 277.977819 -51.714031 
L 276.448353 -52.374142 
L 274.918888 -53.08297 
L 273.389422 -53.834438 
L 271.859957 -54.622374 
L 270.330491 -55.440841 
L 268.801026 -56.284427 
L 267.27156 -57.148501 
L 265.742095 -58.029399 
L 264.212629 -58.924538 
L 262.683164 -59.832442 
L 261.153698 -60.752673 
L 259.624233 -61.685677 
L 258.094767 -62.632552 
L 256.565302 -63.59474 
L 255.035836 -64.573689 
L 253.50637 -65.570483 
L 251.976905 -66.585491 
L 250.447439 -67.61806 
L 248.917974 -68.666273 
L 247.388508 -69.726817 
L 245.859043 -70.794965 
L 244.329577 -71.864698 
L 242.800112 -72.928968 
L 241.270646 -73.980088 
L 239.741181 -75.010249 
L 238.211715 -76.012115 
L 236.68225 -76.979478 
L 235.152784 -77.90792 
L 233.623319 -78.795436 
L 232.093853 -79.642979 
L 230.564388 -80.454881 
L 229.034922 -81.239102 
L 227.505457 -82.007308 
L 225.975991 -82.774743 
L 224.446526 -83.559904 
L 222.91706 -84.384032 
L 221.387595 -85.270456 
L 219.858129 -86.243812 
L 218.328664 -87.3292 
L 216.799198 -88.551324 
L 215.269733 -89.933663 
L 213.740267 -91.497736 
L 212.210802 -93.26248 
L 210.681336 -95.243796 
L 209.151871 -97.45426 
L 207.622405 -99.90302 
L 206.09294 -102.595859 
L 204.563474 -105.535399 
L 203.034009 -108.72143 
L 201.504543 -112.151296 
L 199.975078 -115.820322 
L 198.445612 -119.722215 
L 196.916147 -123.849409 
L 195.386681 -128.19332 
L 193.857216 -132.744481 
L 192.32775 -137.492549 
L 190.798285 -142.42619 
L 189.268819 -147.532838 
L 187.739354 -152.798369 
L 186.209888 -158.206715 
L 184.680423 -163.739452 
L 183.150957 -169.375414 
L 181.621492 -175.090362 
L 180.092026 -180.85675 
L 178.562561 -186.64362 
L 177.033095 -192.416638 
L 175.50363 -198.138289 
L 173.974164 -203.768222 
L 172.444698 -209.263731 
L 170.915233 -214.580353 
L 169.385767 -219.672549 
L 167.856302 -224.494423 
L 166.326836 -229.000456 
L 164.797371 -233.146201 
L 163.267905 -236.888914 
L 161.73844 -240.188106 
L 160.208974 -243.005985 
L 158.679509 -245.307802 
L 157.150043 -247.062106 
L 155.620578 -248.240928 
L 154.091112 -248.819933 
L 152.561647 -248.778565 
L 151.032181 -248.100225 
L 149.502716 -246.772511 
L 147.97325 -244.787548 
L 146.443785 -242.142405 
L 144.914319 -238.839606 
L 143.384854 -234.887694 
L 141.855388 -230.301831 
L 140.325923 -225.104354 
L 138.796457 -219.325251 
L 137.266992 -213.002469 
L 135.737526 -206.182008 
L 134.208061 -198.917737 
L 132.678595 -191.2709 
L 131.14913 -183.309289 
L 129.619664 -175.106098 
L 128.090199 -166.738484 
L 126.560733 -158.285883 
L 125.031268 -149.828168 
L 123.501802 -141.443722 
L 121.972337 -133.207532 
L 120.442871 -125.189388 
L 118.913406 -117.45229 
L 117.38394 -110.051129 
L 115.854475 -103.031697 
L 114.325009 -96.430074 
L 112.795544 -90.272384 
L 111.266078 -84.574929 
L 109.736613 -79.344653 
L 108.207147 -74.579897 
L 106.677682 -70.271375 
L 105.148216 -66.403313 
L 103.618751 -62.954669 
L 102.089285 -59.900379 
L 100.55982 -57.212564 
L 99.030354 -54.861646 
L 97.500889 -52.817348 
L 95.971423 -51.04954 
L 94.441958 -49.528933 
L 92.912492 -48.227609 
L 91.383026 -47.119402 
L 89.853561 -46.18014 
L 88.324095 -45.387779 
L 86.79463 -44.722429 
L 85.265164 -44.166316 
L 83.735699 -43.703687 
L 82.206233 -43.320677 
L 80.676768 -43.00516 
L 79.147302 -42.74659 
L 77.617837 -42.535837 
L 76.088371 -42.365034 
L 74.558906 -42.227435 
L 73.02944 -42.117281 
L 71.499975 -42.029675 
L 69.970509 -41.960481 
L 68.441044 -41.90622 
L 66.911578 -41.863985 
L 65.382113 -41.831363 
L 63.852647 -41.806366 
L 62.323182 -41.787368 
z
" id="m8b0f9beb15" style="stroke:#4c72b0;"/>
    </defs>
    <g clip-path="url(#pd9b9ce3e14)">
     <use style="fill:#4c72b0;fill-opacity:0.25;stroke:#4c72b0;" x="0" xlink:href="#m8b0f9beb15" y="269.581584"/>
    </g>
   </g>
   <g id="patch_3">
    <path d="M 47.105 227.847365 
L 47.105 10.407365 
" style="fill:none;stroke:#ffffff;stroke-linecap:square;stroke-linejoin:miter;stroke-width:1.25;"/>
   </g>
   <g id="patch_4">
    <path d="M 381.905 227.847365 
L 381.905 10.407365 
" style="fill:none;stroke:#ffffff;stroke-linecap:square;stroke-linejoin:miter;stroke-width:1.25;"/>
   </g>
   <g id="patch_5">
    <path d="M 47.105 227.847365 
L 381.905 227.847365 
" style="fill:none;stroke:#ffffff;stroke-linecap:square;stroke-linejoin:miter;stroke-width:1.25;"/>
   </g>
   <g id="patch_6">
    <path d="M 47.105 10.407365 
L 381.905 10.407365 
" style="fill:none;stroke:#ffffff;stroke-linecap:square;stroke-linejoin:miter;stroke-width:1.25;"/>
   </g>
  </g>
 </g>
 <defs>
  <clipPath id="pd9b9ce3e14">
   <rect height="217.44" width="334.8" x="47.105" y="10.407365"/>
  </clipPath>
 </defs>
</svg>
