<?xml version="1.0" encoding="utf-8" standalone="no"?>
<!DOCTYPE svg PUBLIC "-//W3C//DTD SVG 1.1//EN"
  "http://www.w3.org/Graphics/SVG/1.1/DTD/svg11.dtd">
<svg height="266.374219pt" version="1.1" viewBox="0 0 389.105 266.374219" width="389.105pt" xmlns="http://www.w3.org/2000/svg" xmlns:xlink="http://www.w3.org/1999/xlink">
 <metadata>
  <rdf:RDF xmlns:cc="http://creativecommons.org/ns#" xmlns:dc="http://purl.org/dc/elements/1.1/" xmlns:rdf="http://www.w3.org/1999/02/22-rdf-syntax-ns#">
   <cc:Work>
    <dc:type rdf:resource="http://purl.org/dc/dcmitype/StillImage"/>
    <dc:date>2021-08-20T18:32:38.607459</dc:date>
    <dc:format>image/svg+xml</dc:format>
    <dc:creator>
     <cc:Agent>
      <dc:title>Matplotlib v3.4.2, https://matplotlib.org/</dc:title>
     </cc:Agent>
    </dc:creator>
   </cc:Work>
  </rdf:RDF>
 </metadata>
 <defs>
  <style type="text/css">*{stroke-linecap:butt;stroke-linejoin:round;}</style>
 </defs>
 <g id="figure_1">
  <g id="patch_1">
   <path d="M 0 266.374219 
L 389.105 266.374219 
L 389.105 0 
L 0 0 
z
" style="fill:#ffffff;"/>
  </g>
  <g id="axes_1">
   <g id="patch_2">
    <path d="M 47.105 224.64 
L 381.905 224.64 
L 381.905 7.2 
L 47.105 7.2 
z
" style="fill:#eaeaf2;"/>
   </g>
   <g id="matplotlib.axis_1">
    <g id="xtick_1">
     <g id="line2d_1">
      <path clip-path="url(#p7a37080306)" d="M 69.231917 224.64 
L 69.231917 7.2 
" style="fill:none;stroke:#ffffff;stroke-linecap:round;"/>
     </g>
     <g id="text_1">
      <!-- 0 -->
      <g style="fill:#262626;" transform="translate(66.173402 242.013594)scale(0.11 -0.11)">
       <defs>
        <path d="M 266 2259 
Q 266 3072 433 3567 
Q 600 4063 929 4331 
Q 1259 4600 1759 4600 
Q 2128 4600 2406 4451 
Q 2684 4303 2865 4023 
Q 3047 3744 3150 3342 
Q 3253 2941 3253 2259 
Q 3253 1453 3087 958 
Q 2922 463 2592 192 
Q 2263 -78 1759 -78 
Q 1097 -78 719 397 
Q 266 969 266 2259 
z
M 844 2259 
Q 844 1131 1108 757 
Q 1372 384 1759 384 
Q 2147 384 2411 759 
Q 2675 1134 2675 2259 
Q 2675 3391 2411 3762 
Q 2147 4134 1753 4134 
Q 1366 4134 1134 3806 
Q 844 3388 844 2259 
z
" id="ArialMT-30" transform="scale(0.015625)"/>
       </defs>
       <use xlink:href="#ArialMT-30"/>
      </g>
     </g>
    </g>
    <g id="xtick_2">
     <g id="line2d_2">
      <path clip-path="url(#p7a37080306)" d="M 126.605531 224.64 
L 126.605531 7.2 
" style="fill:none;stroke:#ffffff;stroke-linecap:round;"/>
     </g>
     <g id="text_2">
      <!-- 1 -->
      <g style="fill:#262626;" transform="translate(123.547015 242.013594)scale(0.11 -0.11)">
       <defs>
        <path d="M 2384 0 
L 1822 0 
L 1822 3584 
Q 1619 3391 1289 3197 
Q 959 3003 697 2906 
L 697 3450 
Q 1169 3672 1522 3987 
Q 1875 4303 2022 4600 
L 2384 4600 
L 2384 0 
z
" id="ArialMT-31" transform="scale(0.015625)"/>
       </defs>
       <use xlink:href="#ArialMT-31"/>
      </g>
     </g>
    </g>
    <g id="xtick_3">
     <g id="line2d_3">
      <path clip-path="url(#p7a37080306)" d="M 183.979144 224.64 
L 183.979144 7.2 
" style="fill:none;stroke:#ffffff;stroke-linecap:round;"/>
     </g>
     <g id="text_3">
      <!-- 2 -->
      <g style="fill:#262626;" transform="translate(180.920629 242.013594)scale(0.11 -0.11)">
       <defs>
        <path d="M 3222 541 
L 3222 0 
L 194 0 
Q 188 203 259 391 
Q 375 700 629 1000 
Q 884 1300 1366 1694 
Q 2113 2306 2375 2664 
Q 2638 3022 2638 3341 
Q 2638 3675 2398 3904 
Q 2159 4134 1775 4134 
Q 1369 4134 1125 3890 
Q 881 3647 878 3216 
L 300 3275 
Q 359 3922 746 4261 
Q 1134 4600 1788 4600 
Q 2447 4600 2831 4234 
Q 3216 3869 3216 3328 
Q 3216 3053 3103 2787 
Q 2991 2522 2730 2228 
Q 2469 1934 1863 1422 
Q 1356 997 1212 845 
Q 1069 694 975 541 
L 3222 541 
z
" id="ArialMT-32" transform="scale(0.015625)"/>
       </defs>
       <use xlink:href="#ArialMT-32"/>
      </g>
     </g>
    </g>
    <g id="xtick_4">
     <g id="line2d_4">
      <path clip-path="url(#p7a37080306)" d="M 241.352758 224.64 
L 241.352758 7.2 
" style="fill:none;stroke:#ffffff;stroke-linecap:round;"/>
     </g>
     <g id="text_4">
      <!-- 3 -->
      <g style="fill:#262626;" transform="translate(238.294242 242.013594)scale(0.11 -0.11)">
       <defs>
        <path d="M 269 1209 
L 831 1284 
Q 928 806 1161 595 
Q 1394 384 1728 384 
Q 2125 384 2398 659 
Q 2672 934 2672 1341 
Q 2672 1728 2419 1979 
Q 2166 2231 1775 2231 
Q 1616 2231 1378 2169 
L 1441 2663 
Q 1497 2656 1531 2656 
Q 1891 2656 2178 2843 
Q 2466 3031 2466 3422 
Q 2466 3731 2256 3934 
Q 2047 4138 1716 4138 
Q 1388 4138 1169 3931 
Q 950 3725 888 3313 
L 325 3413 
Q 428 3978 793 4289 
Q 1159 4600 1703 4600 
Q 2078 4600 2393 4439 
Q 2709 4278 2876 4000 
Q 3044 3722 3044 3409 
Q 3044 3113 2884 2869 
Q 2725 2625 2413 2481 
Q 2819 2388 3044 2092 
Q 3269 1797 3269 1353 
Q 3269 753 2831 336 
Q 2394 -81 1725 -81 
Q 1122 -81 723 278 
Q 325 638 269 1209 
z
" id="ArialMT-33" transform="scale(0.015625)"/>
       </defs>
       <use xlink:href="#ArialMT-33"/>
      </g>
     </g>
    </g>
    <g id="xtick_5">
     <g id="line2d_5">
      <path clip-path="url(#p7a37080306)" d="M 298.726371 224.64 
L 298.726371 7.2 
" style="fill:none;stroke:#ffffff;stroke-linecap:round;"/>
     </g>
     <g id="text_5">
      <!-- 4 -->
      <g style="fill:#262626;" transform="translate(295.667855 242.013594)scale(0.11 -0.11)">
       <defs>
        <path d="M 2069 0 
L 2069 1097 
L 81 1097 
L 81 1613 
L 2172 4581 
L 2631 4581 
L 2631 1613 
L 3250 1613 
L 3250 1097 
L 2631 1097 
L 2631 0 
L 2069 0 
z
M 2069 1613 
L 2069 3678 
L 634 1613 
L 2069 1613 
z
" id="ArialMT-34" transform="scale(0.015625)"/>
       </defs>
       <use xlink:href="#ArialMT-34"/>
      </g>
     </g>
    </g>
    <g id="xtick_6">
     <g id="line2d_6">
      <path clip-path="url(#p7a37080306)" d="M 356.099985 224.64 
L 356.099985 7.2 
" style="fill:none;stroke:#ffffff;stroke-linecap:round;"/>
     </g>
     <g id="text_6">
      <!-- 5 -->
      <g style="fill:#262626;" transform="translate(353.041469 242.013594)scale(0.11 -0.11)">
       <defs>
        <path d="M 266 1200 
L 856 1250 
Q 922 819 1161 601 
Q 1400 384 1738 384 
Q 2144 384 2425 690 
Q 2706 997 2706 1503 
Q 2706 1984 2436 2262 
Q 2166 2541 1728 2541 
Q 1456 2541 1237 2417 
Q 1019 2294 894 2097 
L 366 2166 
L 809 4519 
L 3088 4519 
L 3088 3981 
L 1259 3981 
L 1013 2750 
Q 1425 3038 1878 3038 
Q 2478 3038 2890 2622 
Q 3303 2206 3303 1553 
Q 3303 931 2941 478 
Q 2500 -78 1738 -78 
Q 1113 -78 717 272 
Q 322 622 266 1200 
z
" id="ArialMT-35" transform="scale(0.015625)"/>
       </defs>
       <use xlink:href="#ArialMT-35"/>
      </g>
     </g>
    </g>
    <g id="text_7">
     <!-- FLAIR -->
     <g style="fill:#262626;" transform="translate(197.501563 256.789219)scale(0.12 -0.12)">
      <defs>
       <path d="M 525 0 
L 525 4581 
L 3616 4581 
L 3616 4041 
L 1131 4041 
L 1131 2622 
L 3281 2622 
L 3281 2081 
L 1131 2081 
L 1131 0 
L 525 0 
z
" id="ArialMT-46" transform="scale(0.015625)"/>
       <path d="M 469 0 
L 469 4581 
L 1075 4581 
L 1075 541 
L 3331 541 
L 3331 0 
L 469 0 
z
" id="ArialMT-4c" transform="scale(0.015625)"/>
       <path d="M -9 0 
L 1750 4581 
L 2403 4581 
L 4278 0 
L 3588 0 
L 3053 1388 
L 1138 1388 
L 634 0 
L -9 0 
z
M 1313 1881 
L 2866 1881 
L 2388 3150 
Q 2169 3728 2063 4100 
Q 1975 3659 1816 3225 
L 1313 1881 
z
" id="ArialMT-41" transform="scale(0.015625)"/>
       <path d="M 597 0 
L 597 4581 
L 1203 4581 
L 1203 0 
L 597 0 
z
" id="ArialMT-49" transform="scale(0.015625)"/>
       <path d="M 503 0 
L 503 4581 
L 2534 4581 
Q 3147 4581 3465 4457 
Q 3784 4334 3975 4021 
Q 4166 3709 4166 3331 
Q 4166 2844 3850 2509 
Q 3534 2175 2875 2084 
Q 3116 1969 3241 1856 
Q 3506 1613 3744 1247 
L 4541 0 
L 3778 0 
L 3172 953 
Q 2906 1366 2734 1584 
Q 2563 1803 2427 1890 
Q 2291 1978 2150 2013 
Q 2047 2034 1813 2034 
L 1109 2034 
L 1109 0 
L 503 0 
z
M 1109 2559 
L 2413 2559 
Q 2828 2559 3062 2645 
Q 3297 2731 3419 2920 
Q 3541 3109 3541 3331 
Q 3541 3656 3305 3865 
Q 3069 4075 2559 4075 
L 1109 4075 
L 1109 2559 
z
" id="ArialMT-52" transform="scale(0.015625)"/>
      </defs>
      <use xlink:href="#ArialMT-46"/>
      <use x="61.083984" xlink:href="#ArialMT-4c"/>
      <use x="116.699219" xlink:href="#ArialMT-41"/>
      <use x="183.398438" xlink:href="#ArialMT-49"/>
      <use x="211.181641" xlink:href="#ArialMT-52"/>
     </g>
    </g>
   </g>
   <g id="matplotlib.axis_2">
    <g id="ytick_1">
     <g id="line2d_7">
      <path clip-path="url(#p7a37080306)" d="M 47.105 224.64 
L 381.905 224.64 
" style="fill:none;stroke:#ffffff;stroke-linecap:round;"/>
     </g>
     <g id="text_8">
      <!-- 0.0 -->
      <g style="fill:#262626;" transform="translate(22.315 228.576797)scale(0.11 -0.11)">
       <defs>
        <path d="M 581 0 
L 581 641 
L 1222 641 
L 1222 0 
L 581 0 
z
" id="ArialMT-2e" transform="scale(0.015625)"/>
       </defs>
       <use xlink:href="#ArialMT-30"/>
       <use x="55.615234" xlink:href="#ArialMT-2e"/>
       <use x="83.398438" xlink:href="#ArialMT-30"/>
      </g>
     </g>
    </g>
    <g id="ytick_2">
     <g id="line2d_8">
      <path clip-path="url(#p7a37080306)" d="M 47.105 186.118368 
L 381.905 186.118368 
" style="fill:none;stroke:#ffffff;stroke-linecap:round;"/>
     </g>
     <g id="text_9">
      <!-- 0.2 -->
      <g style="fill:#262626;" transform="translate(22.315 190.055165)scale(0.11 -0.11)">
       <use xlink:href="#ArialMT-30"/>
       <use x="55.615234" xlink:href="#ArialMT-2e"/>
       <use x="83.398438" xlink:href="#ArialMT-32"/>
      </g>
     </g>
    </g>
    <g id="ytick_3">
     <g id="line2d_9">
      <path clip-path="url(#p7a37080306)" d="M 47.105 147.596736 
L 381.905 147.596736 
" style="fill:none;stroke:#ffffff;stroke-linecap:round;"/>
     </g>
     <g id="text_10">
      <!-- 0.4 -->
      <g style="fill:#262626;" transform="translate(22.315 151.533533)scale(0.11 -0.11)">
       <use xlink:href="#ArialMT-30"/>
       <use x="55.615234" xlink:href="#ArialMT-2e"/>
       <use x="83.398438" xlink:href="#ArialMT-34"/>
      </g>
     </g>
    </g>
    <g id="ytick_4">
     <g id="line2d_10">
      <path clip-path="url(#p7a37080306)" d="M 47.105 109.075105 
L 381.905 109.075105 
" style="fill:none;stroke:#ffffff;stroke-linecap:round;"/>
     </g>
     <g id="text_11">
      <!-- 0.6 -->
      <g style="fill:#262626;" transform="translate(22.315 113.011901)scale(0.11 -0.11)">
       <defs>
        <path d="M 3184 3459 
L 2625 3416 
Q 2550 3747 2413 3897 
Q 2184 4138 1850 4138 
Q 1581 4138 1378 3988 
Q 1113 3794 959 3422 
Q 806 3050 800 2363 
Q 1003 2672 1297 2822 
Q 1591 2972 1913 2972 
Q 2475 2972 2870 2558 
Q 3266 2144 3266 1488 
Q 3266 1056 3080 686 
Q 2894 316 2569 119 
Q 2244 -78 1831 -78 
Q 1128 -78 684 439 
Q 241 956 241 2144 
Q 241 3472 731 4075 
Q 1159 4600 1884 4600 
Q 2425 4600 2770 4297 
Q 3116 3994 3184 3459 
z
M 888 1484 
Q 888 1194 1011 928 
Q 1134 663 1356 523 
Q 1578 384 1822 384 
Q 2178 384 2434 671 
Q 2691 959 2691 1453 
Q 2691 1928 2437 2201 
Q 2184 2475 1800 2475 
Q 1419 2475 1153 2201 
Q 888 1928 888 1484 
z
" id="ArialMT-36" transform="scale(0.015625)"/>
       </defs>
       <use xlink:href="#ArialMT-30"/>
       <use x="55.615234" xlink:href="#ArialMT-2e"/>
       <use x="83.398438" xlink:href="#ArialMT-36"/>
      </g>
     </g>
    </g>
    <g id="ytick_5">
     <g id="line2d_11">
      <path clip-path="url(#p7a37080306)" d="M 47.105 70.553473 
L 381.905 70.553473 
" style="fill:none;stroke:#ffffff;stroke-linecap:round;"/>
     </g>
     <g id="text_12">
      <!-- 0.8 -->
      <g style="fill:#262626;" transform="translate(22.315 74.49027)scale(0.11 -0.11)">
       <defs>
        <path d="M 1131 2484 
Q 781 2613 612 2850 
Q 444 3088 444 3419 
Q 444 3919 803 4259 
Q 1163 4600 1759 4600 
Q 2359 4600 2725 4251 
Q 3091 3903 3091 3403 
Q 3091 3084 2923 2848 
Q 2756 2613 2416 2484 
Q 2838 2347 3058 2040 
Q 3278 1734 3278 1309 
Q 3278 722 2862 322 
Q 2447 -78 1769 -78 
Q 1091 -78 675 323 
Q 259 725 259 1325 
Q 259 1772 486 2073 
Q 713 2375 1131 2484 
z
M 1019 3438 
Q 1019 3113 1228 2906 
Q 1438 2700 1772 2700 
Q 2097 2700 2305 2904 
Q 2513 3109 2513 3406 
Q 2513 3716 2298 3927 
Q 2084 4138 1766 4138 
Q 1444 4138 1231 3931 
Q 1019 3725 1019 3438 
z
M 838 1322 
Q 838 1081 952 856 
Q 1066 631 1291 507 
Q 1516 384 1775 384 
Q 2178 384 2440 643 
Q 2703 903 2703 1303 
Q 2703 1709 2433 1975 
Q 2163 2241 1756 2241 
Q 1359 2241 1098 1978 
Q 838 1716 838 1322 
z
" id="ArialMT-38" transform="scale(0.015625)"/>
       </defs>
       <use xlink:href="#ArialMT-30"/>
       <use x="55.615234" xlink:href="#ArialMT-2e"/>
       <use x="83.398438" xlink:href="#ArialMT-38"/>
      </g>
     </g>
    </g>
    <g id="ytick_6">
     <g id="line2d_12">
      <path clip-path="url(#p7a37080306)" d="M 47.105 32.031841 
L 381.905 32.031841 
" style="fill:none;stroke:#ffffff;stroke-linecap:round;"/>
     </g>
     <g id="text_13">
      <!-- 1.0 -->
      <g style="fill:#262626;" transform="translate(22.315 35.968638)scale(0.11 -0.11)">
       <use xlink:href="#ArialMT-31"/>
       <use x="55.615234" xlink:href="#ArialMT-2e"/>
       <use x="83.398438" xlink:href="#ArialMT-30"/>
      </g>
     </g>
    </g>
    <g id="text_14">
     <!-- Density -->
     <g style="fill:#262626;" transform="translate(15.789375 135.92625)rotate(-90)scale(0.12 -0.12)">
      <defs>
       <path d="M 494 0 
L 494 4581 
L 2072 4581 
Q 2606 4581 2888 4516 
Q 3281 4425 3559 4188 
Q 3922 3881 4101 3404 
Q 4281 2928 4281 2316 
Q 4281 1794 4159 1391 
Q 4038 988 3847 723 
Q 3656 459 3429 307 
Q 3203 156 2883 78 
Q 2563 0 2147 0 
L 494 0 
z
M 1100 541 
L 2078 541 
Q 2531 541 2789 625 
Q 3047 709 3200 863 
Q 3416 1078 3536 1442 
Q 3656 1806 3656 2325 
Q 3656 3044 3420 3430 
Q 3184 3816 2847 3947 
Q 2603 4041 2063 4041 
L 1100 4041 
L 1100 541 
z
" id="ArialMT-44" transform="scale(0.015625)"/>
       <path d="M 2694 1069 
L 3275 997 
Q 3138 488 2766 206 
Q 2394 -75 1816 -75 
Q 1088 -75 661 373 
Q 234 822 234 1631 
Q 234 2469 665 2931 
Q 1097 3394 1784 3394 
Q 2450 3394 2872 2941 
Q 3294 2488 3294 1666 
Q 3294 1616 3291 1516 
L 816 1516 
Q 847 969 1125 678 
Q 1403 388 1819 388 
Q 2128 388 2347 550 
Q 2566 713 2694 1069 
z
M 847 1978 
L 2700 1978 
Q 2663 2397 2488 2606 
Q 2219 2931 1791 2931 
Q 1403 2931 1139 2672 
Q 875 2413 847 1978 
z
" id="ArialMT-65" transform="scale(0.015625)"/>
       <path d="M 422 0 
L 422 3319 
L 928 3319 
L 928 2847 
Q 1294 3394 1984 3394 
Q 2284 3394 2536 3286 
Q 2788 3178 2913 3003 
Q 3038 2828 3088 2588 
Q 3119 2431 3119 2041 
L 3119 0 
L 2556 0 
L 2556 2019 
Q 2556 2363 2490 2533 
Q 2425 2703 2258 2804 
Q 2091 2906 1866 2906 
Q 1506 2906 1245 2678 
Q 984 2450 984 1813 
L 984 0 
L 422 0 
z
" id="ArialMT-6e" transform="scale(0.015625)"/>
       <path d="M 197 991 
L 753 1078 
Q 800 744 1014 566 
Q 1228 388 1613 388 
Q 2000 388 2187 545 
Q 2375 703 2375 916 
Q 2375 1106 2209 1216 
Q 2094 1291 1634 1406 
Q 1016 1563 777 1677 
Q 538 1791 414 1992 
Q 291 2194 291 2438 
Q 291 2659 392 2848 
Q 494 3038 669 3163 
Q 800 3259 1026 3326 
Q 1253 3394 1513 3394 
Q 1903 3394 2198 3281 
Q 2494 3169 2634 2976 
Q 2775 2784 2828 2463 
L 2278 2388 
Q 2241 2644 2061 2787 
Q 1881 2931 1553 2931 
Q 1166 2931 1000 2803 
Q 834 2675 834 2503 
Q 834 2394 903 2306 
Q 972 2216 1119 2156 
Q 1203 2125 1616 2013 
Q 2213 1853 2448 1751 
Q 2684 1650 2818 1456 
Q 2953 1263 2953 975 
Q 2953 694 2789 445 
Q 2625 197 2315 61 
Q 2006 -75 1616 -75 
Q 969 -75 630 194 
Q 291 463 197 991 
z
" id="ArialMT-73" transform="scale(0.015625)"/>
       <path d="M 425 3934 
L 425 4581 
L 988 4581 
L 988 3934 
L 425 3934 
z
M 425 0 
L 425 3319 
L 988 3319 
L 988 0 
L 425 0 
z
" id="ArialMT-69" transform="scale(0.015625)"/>
       <path d="M 1650 503 
L 1731 6 
Q 1494 -44 1306 -44 
Q 1000 -44 831 53 
Q 663 150 594 308 
Q 525 466 525 972 
L 525 2881 
L 113 2881 
L 113 3319 
L 525 3319 
L 525 4141 
L 1084 4478 
L 1084 3319 
L 1650 3319 
L 1650 2881 
L 1084 2881 
L 1084 941 
Q 1084 700 1114 631 
Q 1144 563 1211 522 
Q 1278 481 1403 481 
Q 1497 481 1650 503 
z
" id="ArialMT-74" transform="scale(0.015625)"/>
       <path d="M 397 -1278 
L 334 -750 
Q 519 -800 656 -800 
Q 844 -800 956 -737 
Q 1069 -675 1141 -563 
Q 1194 -478 1313 -144 
Q 1328 -97 1363 -6 
L 103 3319 
L 709 3319 
L 1400 1397 
Q 1534 1031 1641 628 
Q 1738 1016 1872 1384 
L 2581 3319 
L 3144 3319 
L 1881 -56 
Q 1678 -603 1566 -809 
Q 1416 -1088 1222 -1217 
Q 1028 -1347 759 -1347 
Q 597 -1347 397 -1278 
z
" id="ArialMT-79" transform="scale(0.015625)"/>
      </defs>
      <use xlink:href="#ArialMT-44"/>
      <use x="72.216797" xlink:href="#ArialMT-65"/>
      <use x="127.832031" xlink:href="#ArialMT-6e"/>
      <use x="183.447266" xlink:href="#ArialMT-73"/>
      <use x="233.447266" xlink:href="#ArialMT-69"/>
      <use x="255.664062" xlink:href="#ArialMT-74"/>
      <use x="283.447266" xlink:href="#ArialMT-79"/>
     </g>
    </g>
   </g>
   <g id="PolyCollection_1">
    <defs>
     <path d="M 80.315431 -41.844578 
L 80.315431 -41.734219 
L 81.029696 -41.734219 
L 81.74396 -41.734219 
L 82.458225 -41.734219 
L 83.172489 -41.734219 
L 83.886754 -41.734219 
L 84.601018 -41.734219 
L 85.315283 -41.734219 
L 86.029547 -41.734219 
L 86.743812 -41.734219 
L 87.458076 -41.734219 
L 88.172341 -41.734219 
L 88.886605 -41.734219 
L 89.60087 -41.734219 
L 90.315134 -41.734219 
L 91.029399 -41.734219 
L 91.743663 -41.734219 
L 92.457928 -41.734219 
L 93.172192 -41.734219 
L 93.886457 -41.734219 
L 94.600721 -41.734219 
L 95.314986 -41.734219 
L 96.02925 -41.734219 
L 96.743515 -41.734219 
L 97.457779 -41.734219 
L 98.172043 -41.734219 
L 98.886308 -41.734219 
L 99.600572 -41.734219 
L 100.314837 -41.734219 
L 101.029101 -41.734219 
L 101.743366 -41.734219 
L 102.45763 -41.734219 
L 103.171895 -41.734219 
L 103.886159 -41.734219 
L 104.600424 -41.734219 
L 105.314688 -41.734219 
L 106.028953 -41.734219 
L 106.743217 -41.734219 
L 107.457482 -41.734219 
L 108.171746 -41.734219 
L 108.886011 -41.734219 
L 109.600275 -41.734219 
L 110.31454 -41.734219 
L 111.028804 -41.734219 
L 111.743069 -41.734219 
L 112.457333 -41.734219 
L 113.171598 -41.734219 
L 113.885862 -41.734219 
L 114.600127 -41.734219 
L 115.314391 -41.734219 
L 116.028656 -41.734219 
L 116.74292 -41.734219 
L 117.457185 -41.734219 
L 118.171449 -41.734219 
L 118.885714 -41.734219 
L 119.599978 -41.734219 
L 120.314243 -41.734219 
L 121.028507 -41.734219 
L 121.742772 -41.734219 
L 122.457036 -41.734219 
L 123.171301 -41.734219 
L 123.885565 -41.734219 
L 124.59983 -41.734219 
L 125.314094 -41.734219 
L 126.028359 -41.734219 
L 126.742623 -41.734219 
L 127.456887 -41.734219 
L 128.171152 -41.734219 
L 128.885416 -41.734219 
L 129.599681 -41.734219 
L 130.313945 -41.734219 
L 131.02821 -41.734219 
L 131.742474 -41.734219 
L 132.456739 -41.734219 
L 133.171003 -41.734219 
L 133.885268 -41.734219 
L 134.599532 -41.734219 
L 135.313797 -41.734219 
L 136.028061 -41.734219 
L 136.742326 -41.734219 
L 137.45659 -41.734219 
L 138.170855 -41.734219 
L 138.885119 -41.734219 
L 139.599384 -41.734219 
L 140.313648 -41.734219 
L 141.027913 -41.734219 
L 141.742177 -41.734219 
L 142.456442 -41.734219 
L 143.170706 -41.734219 
L 143.884971 -41.734219 
L 144.599235 -41.734219 
L 145.3135 -41.734219 
L 146.027764 -41.734219 
L 146.742029 -41.734219 
L 147.456293 -41.734219 
L 148.170558 -41.734219 
L 148.884822 -41.734219 
L 149.599087 -41.734219 
L 150.313351 -41.734219 
L 151.027616 -41.734219 
L 151.74188 -41.734219 
L 152.456145 -41.734219 
L 153.170409 -41.734219 
L 153.884674 -41.734219 
L 154.598938 -41.734219 
L 155.313202 -41.734219 
L 156.027467 -41.734219 
L 156.741731 -41.734219 
L 157.455996 -41.734219 
L 158.17026 -41.734219 
L 158.884525 -41.734219 
L 159.598789 -41.734219 
L 160.313054 -41.734219 
L 161.027318 -41.734219 
L 161.741583 -41.734219 
L 162.455847 -41.734219 
L 163.170112 -41.734219 
L 163.884376 -41.734219 
L 164.598641 -41.734219 
L 165.312905 -41.734219 
L 166.02717 -41.734219 
L 166.741434 -41.734219 
L 167.455699 -41.734219 
L 168.169963 -41.734219 
L 168.884228 -41.734219 
L 169.598492 -41.734219 
L 170.312757 -41.734219 
L 171.027021 -41.734219 
L 171.741286 -41.734219 
L 172.45555 -41.734219 
L 173.169815 -41.734219 
L 173.884079 -41.734219 
L 174.598344 -41.734219 
L 175.312608 -41.734219 
L 176.026873 -41.734219 
L 176.741137 -41.734219 
L 177.455402 -41.734219 
L 178.169666 -41.734219 
L 178.883931 -41.734219 
L 179.598195 -41.734219 
L 180.31246 -41.734219 
L 181.026724 -41.734219 
L 181.740989 -41.734219 
L 182.455253 -41.734219 
L 183.169518 -41.734219 
L 183.883782 -41.734219 
L 184.598046 -41.734219 
L 185.312311 -41.734219 
L 186.026575 -41.734219 
L 186.74084 -41.734219 
L 187.455104 -41.734219 
L 188.169369 -41.734219 
L 188.883633 -41.734219 
L 189.597898 -41.734219 
L 190.312162 -41.734219 
L 191.026427 -41.734219 
L 191.740691 -41.734219 
L 192.454956 -41.734219 
L 193.16922 -41.734219 
L 193.883485 -41.734219 
L 194.597749 -41.734219 
L 195.312014 -41.734219 
L 196.026278 -41.734219 
L 196.740543 -41.734219 
L 197.454807 -41.734219 
L 198.169072 -41.734219 
L 198.883336 -41.734219 
L 199.597601 -41.734219 
L 200.311865 -41.734219 
L 201.02613 -41.734219 
L 201.740394 -41.734219 
L 202.454659 -41.734219 
L 203.168923 -41.734219 
L 203.883188 -41.734219 
L 204.597452 -41.734219 
L 205.311717 -41.734219 
L 206.025981 -41.734219 
L 206.740246 -41.734219 
L 207.45451 -41.734219 
L 208.168775 -41.734219 
L 208.883039 -41.734219 
L 209.597304 -41.734219 
L 210.311568 -41.734219 
L 211.025833 -41.734219 
L 211.740097 -41.734219 
L 212.454362 -41.734219 
L 213.168626 -41.734219 
L 213.88289 -41.734219 
L 214.597155 -41.734219 
L 215.311419 -41.734219 
L 216.025684 -41.734219 
L 216.739948 -41.734219 
L 217.454213 -41.734219 
L 218.168477 -41.734219 
L 218.882742 -41.734219 
L 219.597006 -41.734219 
L 220.311271 -41.734219 
L 221.025535 -41.734219 
L 221.7398 -41.734219 
L 222.454064 -41.734219 
L 222.454064 -41.854465 
L 222.454064 -41.854465 
L 221.7398 -41.88755 
L 221.025535 -41.928559 
L 220.311271 -41.979055 
L 219.597006 -42.040828 
L 218.882742 -42.115901 
L 218.168477 -42.206543 
L 217.454213 -42.315271 
L 216.739948 -42.444847 
L 216.025684 -42.598269 
L 215.311419 -42.778755 
L 214.597155 -42.989715 
L 213.88289 -43.234717 
L 213.168626 -43.517446 
L 212.454362 -43.841649 
L 211.740097 -44.211077 
L 211.025833 -44.629416 
L 210.311568 -45.100222 
L 209.597304 -45.626841 
L 208.883039 -46.212341 
L 208.168775 -46.859438 
L 207.45451 -47.570435 
L 206.740246 -48.347165 
L 206.025981 -49.19095 
L 205.311717 -50.102572 
L 204.597452 -51.082266 
L 203.883188 -52.129728 
L 203.168923 -53.24414 
L 202.454659 -54.424227 
L 201.740394 -55.668319 
L 201.02613 -56.974437 
L 200.311865 -58.340394 
L 199.597601 -59.763903 
L 198.883336 -61.242694 
L 198.169072 -62.774626 
L 197.454807 -64.357804 
L 196.740543 -65.990672 
L 196.026278 -67.672106 
L 195.312014 -69.40147 
L 194.597749 -71.178664 
L 193.883485 -73.004127 
L 193.16922 -74.878823 
L 192.454956 -76.804186 
L 191.740691 -78.782043 
L 191.026427 -80.814499 
L 190.312162 -82.903804 
L 189.597898 -85.052192 
L 188.883633 -87.261707 
L 188.169369 -89.534024 
L 187.455104 -91.870258 
L 186.74084 -94.270794 
L 186.026575 -96.735113 
L 185.312311 -99.261658 
L 184.598046 -101.847719 
L 183.883782 -104.489355 
L 183.169518 -107.181368 
L 182.455253 -109.917316 
L 181.740989 -112.689578 
L 181.026724 -115.489476 
L 180.31246 -118.307444 
L 179.598195 -121.13325 
L 178.883931 -123.956261 
L 178.169666 -126.765744 
L 177.455402 -129.5512 
L 176.741137 -132.302712 
L 176.026873 -135.0113 
L 175.312608 -137.66927 
L 174.598344 -140.270538 
L 173.884079 -142.810918 
L 173.169815 -145.288362 
L 172.45555 -147.703133 
L 171.741286 -150.057907 
L 171.027021 -152.357788 
L 170.312757 -154.610236 
L 169.598492 -156.824903 
L 168.884228 -159.013379 
L 168.169963 -161.188852 
L 167.455699 -163.365689 
L 166.741434 -165.558957 
L 166.02717 -167.783893 
L 165.312905 -170.05535 
L 164.598641 -172.38722 
L 163.884376 -174.791888 
L 163.170112 -177.279708 
L 162.455847 -179.858537 
L 161.741583 -182.533346 
L 161.027318 -185.305925 
L 160.313054 -188.174689 
L 159.598789 -191.134603 
L 158.884525 -194.177222 
L 158.17026 -197.290857 
L 157.455996 -200.460847 
L 156.741731 -203.669943 
L 156.027467 -206.898777 
L 155.313202 -210.126397 
L 154.598938 -213.330864 
L 153.884674 -216.489855 
L 153.170409 -219.581282 
L 152.456145 -222.583874 
L 151.74188 -225.477708 
L 151.027616 -228.244668 
L 150.313351 -230.86881 
L 149.599087 -233.336611 
L 148.884822 -235.637103 
L 148.170558 -237.761879 
L 147.456293 -239.704964 
L 146.742029 -241.462575 
L 146.027764 -243.032766 
L 145.3135 -244.414977 
L 144.599235 -245.609517 
L 143.884971 -246.616999 
L 143.170706 -247.437756 
L 142.456442 -248.071271 
L 141.742177 -248.515652 
L 141.027913 -248.767174 
L 140.313648 -248.819933 
L 139.599384 -248.665608 
L 138.885119 -248.293378 
L 138.170855 -247.689986 
L 137.45659 -246.839968 
L 136.742326 -245.726032 
L 136.028061 -244.329598 
L 135.313797 -242.631453 
L 134.599532 -240.612529 
L 133.885268 -238.254751 
L 133.171003 -235.541926 
L 132.456739 -232.460647 
L 131.742474 -229.001151 
L 131.02821 -225.158117 
L 130.313945 -220.931342 
L 129.599681 -216.326283 
L 128.885416 -211.354426 
L 128.171152 -206.033468 
L 127.456887 -200.38729 
L 126.742623 -194.44573 
L 126.028359 -188.244152 
L 125.314094 -181.822825 
L 124.59983 -175.226141 
L 123.885565 -168.501686 
L 123.171301 -161.699212 
L 122.457036 -154.869541 
L 121.742772 -148.063435 
L 121.028507 -141.330484 
L 120.314243 -134.71804 
L 119.599978 -128.27024 
L 118.885714 -122.027139 
L 118.171449 -116.023995 
L 117.457185 -110.290704 
L 116.74292 -104.851419 
L 116.028656 -99.724339 
L 115.314391 -94.921683 
L 114.600127 -90.449821 
L 113.885862 -86.309573 
L 113.171598 -82.496635 
L 112.457333 -79.002117 
L 111.743069 -75.813175 
L 111.028804 -72.913696 
L 110.31454 -70.285016 
L 109.600275 -67.906655 
L 108.886011 -65.757016 
L 108.171746 -63.814057 
L 107.457482 -62.055898 
L 106.743217 -60.461354 
L 106.028953 -59.010384 
L 105.314688 -57.684443 
L 104.600424 -56.466749 
L 103.886159 -55.342447 
L 103.171895 -54.298688 
L 102.45763 -53.324635 
L 101.743366 -52.411387 
L 101.029101 -51.551852 
L 100.314837 -50.740575 
L 99.600572 -49.97353 
L 98.886308 -49.247895 
L 98.172043 -48.561819 
L 97.457779 -47.914194 
L 96.743515 -47.304436 
L 96.02925 -46.732289 
L 95.314986 -46.197652 
L 94.600721 -45.700438 
L 93.886457 -45.240455 
L 93.172192 -44.817328 
L 92.457928 -44.430443 
L 91.743663 -44.078915 
L 91.029399 -43.761585 
L 90.315134 -43.477033 
L 89.60087 -43.223604 
L 88.886605 -42.999447 
L 88.172341 -42.802558 
L 87.458076 -42.630832 
L 86.743812 -42.482107 
L 86.029547 -42.354211 
L 85.315283 -42.245004 
L 84.601018 -42.152416 
L 83.886754 -42.074473 
L 83.172489 -42.009322 
L 82.458225 -41.955247 
L 81.74396 -41.910682 
L 81.029696 -41.874213 
L 80.315431 -41.844578 
z
" id="m70c531e81f" style="stroke:#4c72b0;"/>
    </defs>
    <g clip-path="url(#p7a37080306)">
     <use style="fill:#4c72b0;fill-opacity:0.25;stroke:#4c72b0;" x="0" xlink:href="#m70c531e81f" y="266.374219"/>
    </g>
   </g>
   <g id="PolyCollection_2">
    <defs>
     <path d="M 62.323182 -41.812947 
L 62.323182 -41.734219 
L 63.852647 -41.734219 
L 65.382113 -41.734219 
L 66.911578 -41.734219 
L 68.441044 -41.734219 
L 69.970509 -41.734219 
L 71.499975 -41.734219 
L 73.02944 -41.734219 
L 74.558906 -41.734219 
L 76.088371 -41.734219 
L 77.617837 -41.734219 
L 79.147302 -41.734219 
L 80.676768 -41.734219 
L 82.206233 -41.734219 
L 83.735699 -41.734219 
L 85.265164 -41.734219 
L 86.79463 -41.734219 
L 88.324095 -41.734219 
L 89.853561 -41.734219 
L 91.383026 -41.734219 
L 92.912492 -41.734219 
L 94.441958 -41.734219 
L 95.971423 -41.734219 
L 97.500889 -41.734219 
L 99.030354 -41.734219 
L 100.55982 -41.734219 
L 102.089285 -41.734219 
L 103.618751 -41.734219 
L 105.148216 -41.734219 
L 106.677682 -41.734219 
L 108.207147 -41.734219 
L 109.736613 -41.734219 
L 111.266078 -41.734219 
L 112.795544 -41.734219 
L 114.325009 -41.734219 
L 115.854475 -41.734219 
L 117.38394 -41.734219 
L 118.913406 -41.734219 
L 120.442871 -41.734219 
L 121.972337 -41.734219 
L 123.501802 -41.734219 
L 125.031268 -41.734219 
L 126.560733 -41.734219 
L 128.090199 -41.734219 
L 129.619664 -41.734219 
L 131.14913 -41.734219 
L 132.678595 -41.734219 
L 134.208061 -41.734219 
L 135.737526 -41.734219 
L 137.266992 -41.734219 
L 138.796457 -41.734219 
L 140.325923 -41.734219 
L 141.855388 -41.734219 
L 143.384854 -41.734219 
L 144.914319 -41.734219 
L 146.443785 -41.734219 
L 147.97325 -41.734219 
L 149.502716 -41.734219 
L 151.032181 -41.734219 
L 152.561647 -41.734219 
L 154.091112 -41.734219 
L 155.620578 -41.734219 
L 157.150043 -41.734219 
L 158.679509 -41.734219 
L 160.208974 -41.734219 
L 161.73844 -41.734219 
L 163.267905 -41.734219 
L 164.797371 -41.734219 
L 166.326836 -41.734219 
L 167.856302 -41.734219 
L 169.385767 -41.734219 
L 170.915233 -41.734219 
L 172.444698 -41.734219 
L 173.974164 -41.734219 
L 175.50363 -41.734219 
L 177.033095 -41.734219 
L 178.562561 -41.734219 
L 180.092026 -41.734219 
L 181.621492 -41.734219 
L 183.150957 -41.734219 
L 184.680423 -41.734219 
L 186.209888 -41.734219 
L 187.739354 -41.734219 
L 189.268819 -41.734219 
L 190.798285 -41.734219 
L 192.32775 -41.734219 
L 193.857216 -41.734219 
L 195.386681 -41.734219 
L 196.916147 -41.734219 
L 198.445612 -41.734219 
L 199.975078 -41.734219 
L 201.504543 -41.734219 
L 203.034009 -41.734219 
L 204.563474 -41.734219 
L 206.09294 -41.734219 
L 207.622405 -41.734219 
L 209.151871 -41.734219 
L 210.681336 -41.734219 
L 212.210802 -41.734219 
L 213.740267 -41.734219 
L 215.269733 -41.734219 
L 216.799198 -41.734219 
L 218.328664 -41.734219 
L 219.858129 -41.734219 
L 221.387595 -41.734219 
L 222.91706 -41.734219 
L 224.446526 -41.734219 
L 225.975991 -41.734219 
L 227.505457 -41.734219 
L 229.034922 -41.734219 
L 230.564388 -41.734219 
L 232.093853 -41.734219 
L 233.623319 -41.734219 
L 235.152784 -41.734219 
L 236.68225 -41.734219 
L 238.211715 -41.734219 
L 239.741181 -41.734219 
L 241.270646 -41.734219 
L 242.800112 -41.734219 
L 244.329577 -41.734219 
L 245.859043 -41.734219 
L 247.388508 -41.734219 
L 248.917974 -41.734219 
L 250.447439 -41.734219 
L 251.976905 -41.734219 
L 253.50637 -41.734219 
L 255.035836 -41.734219 
L 256.565302 -41.734219 
L 258.094767 -41.734219 
L 259.624233 -41.734219 
L 261.153698 -41.734219 
L 262.683164 -41.734219 
L 264.212629 -41.734219 
L 265.742095 -41.734219 
L 267.27156 -41.734219 
L 268.801026 -41.734219 
L 270.330491 -41.734219 
L 271.859957 -41.734219 
L 273.389422 -41.734219 
L 274.918888 -41.734219 
L 276.448353 -41.734219 
L 277.977819 -41.734219 
L 279.507284 -41.734219 
L 281.03675 -41.734219 
L 282.566215 -41.734219 
L 284.095681 -41.734219 
L 285.625146 -41.734219 
L 287.154612 -41.734219 
L 288.684077 -41.734219 
L 290.213543 -41.734219 
L 291.743008 -41.734219 
L 293.272474 -41.734219 
L 294.801939 -41.734219 
L 296.331405 -41.734219 
L 297.86087 -41.734219 
L 299.390336 -41.734219 
L 300.919801 -41.734219 
L 302.449267 -41.734219 
L 303.978732 -41.734219 
L 305.508198 -41.734219 
L 307.037663 -41.734219 
L 308.567129 -41.734219 
L 310.096594 -41.734219 
L 311.62606 -41.734219 
L 313.155525 -41.734219 
L 314.684991 -41.734219 
L 316.214456 -41.734219 
L 317.743922 -41.734219 
L 319.273387 -41.734219 
L 320.802853 -41.734219 
L 322.332318 -41.734219 
L 323.861784 -41.734219 
L 325.391249 -41.734219 
L 326.920715 -41.734219 
L 328.45018 -41.734219 
L 329.979646 -41.734219 
L 331.509111 -41.734219 
L 333.038577 -41.734219 
L 334.568042 -41.734219 
L 336.097508 -41.734219 
L 337.626974 -41.734219 
L 339.156439 -41.734219 
L 340.685905 -41.734219 
L 342.21537 -41.734219 
L 343.744836 -41.734219 
L 345.274301 -41.734219 
L 346.803767 -41.734219 
L 348.333232 -41.734219 
L 349.862698 -41.734219 
L 351.392163 -41.734219 
L 352.921629 -41.734219 
L 354.451094 -41.734219 
L 355.98056 -41.734219 
L 357.510025 -41.734219 
L 359.039491 -41.734219 
L 360.568956 -41.734219 
L 362.098422 -41.734219 
L 363.627887 -41.734219 
L 365.157353 -41.734219 
L 366.686818 -41.734219 
L 366.686818 -41.787105 
L 366.686818 -41.787105 
L 365.157353 -41.801168 
L 363.627887 -41.81847 
L 362.098422 -41.839619 
L 360.568956 -41.865301 
L 359.039491 -41.896285 
L 357.510025 -41.933422 
L 355.98056 -41.977642 
L 354.451094 -42.02995 
L 352.921629 -42.091418 
L 351.392163 -42.163175 
L 349.862698 -42.246387 
L 348.333232 -42.342242 
L 346.803767 -42.451925 
L 345.274301 -42.57659 
L 343.744836 -42.717329 
L 342.21537 -42.87514 
L 340.685905 -43.050889 
L 339.156439 -43.245276 
L 337.626974 -43.458792 
L 336.097508 -43.691688 
L 334.568042 -43.943942 
L 333.038577 -44.215225 
L 331.509111 -44.504882 
L 329.979646 -44.811915 
L 328.45018 -45.134975 
L 326.920715 -45.472366 
L 325.391249 -45.822056 
L 323.861784 -46.181701 
L 322.332318 -46.548687 
L 320.802853 -46.920172 
L 319.273387 -47.293147 
L 317.743922 -47.664505 
L 316.214456 -48.031118 
L 314.684991 -48.389924 
L 313.155525 -48.738009 
L 311.62606 -49.072705 
L 310.096594 -49.391674 
L 308.567129 -49.692997 
L 307.037663 -49.975255 
L 305.508198 -50.237595 
L 303.978732 -50.479794 
L 302.449267 -50.702297 
L 300.919801 -50.906252 
L 299.390336 -51.093512 
L 297.86087 -51.266631 
L 296.331405 -51.428833 
L 294.801939 -51.583964 
L 293.272474 -51.736428 
L 291.743008 -51.891097 
L 290.213543 -52.053221 
L 288.684077 -52.228313 
L 287.154612 -52.422032 
L 285.625146 -52.640059 
L 284.095681 -52.887974 
L 282.566215 -53.171132 
L 281.03675 -53.494551 
L 279.507284 -53.862809 
L 277.977819 -54.279948 
L 276.448353 -54.74941 
L 274.918888 -55.273973 
L 273.389422 -55.85572 
L 271.859957 -56.496025 
L 270.330491 -57.19555 
L 268.801026 -57.95427 
L 267.27156 -58.771507 
L 265.742095 -59.645976 
L 264.212629 -60.575839 
L 262.683164 -61.558766 
L 261.153698 -62.591996 
L 259.624233 -63.672394 
L 258.094767 -64.796501 
L 256.565302 -65.960585 
L 255.035836 -67.160671 
L 253.50637 -68.392576 
L 251.976905 -69.651923 
L 250.447439 -70.934155 
L 248.917974 -72.234552 
L 247.388508 -73.548235 
L 245.859043 -74.870184 
L 244.329577 -76.19526 
L 242.800112 -77.518238 
L 241.270646 -78.833858 
L 239.741181 -80.136888 
L 238.211715 -81.422208 
L 236.68225 -82.684913 
L 235.152784 -83.920427 
L 233.623319 -85.124633 
L 232.093853 -86.294013 
L 230.564388 -87.425788 
L 229.034922 -88.518056 
L 227.505457 -89.569918 
L 225.975991 -90.581588 
L 224.446526 -91.554482 
L 222.91706 -92.491272 
L 221.387595 -93.395908 
L 219.858129 -94.273609 
L 218.328664 -95.130804 
L 216.799198 -95.975042 
L 215.269733 -96.814868 
L 213.740267 -97.659657 
L 212.210802 -98.519429 
L 210.681336 -99.404631 
L 209.151871 -100.325916 
L 207.622405 -101.293899 
L 206.09294 -102.318918 
L 204.563474 -103.410794 
L 203.034009 -104.578598 
L 201.504543 -105.830435 
L 199.975078 -107.173232 
L 198.445612 -108.612553 
L 196.916147 -110.152429 
L 195.386681 -111.7952 
L 193.857216 -113.541389 
L 192.32775 -115.38958 
L 190.798285 -117.336328 
L 189.268819 -119.376085 
L 187.739354 -121.501144 
L 186.209888 -123.701613 
L 184.680423 -125.965418 
L 183.150957 -128.278328 
L 181.621492 -130.624026 
L 180.092026 -132.984209 
L 178.562561 -135.338741 
L 177.033095 -137.665839 
L 175.50363 -139.942313 
L 173.974164 -142.143854 
L 172.444698 -144.245356 
L 170.915233 -146.221286 
L 169.385767 -148.046084 
L 167.856302 -149.694588 
L 166.326836 -151.142474 
L 164.797371 -152.366698 
L 163.267905 -153.34593 
L 161.73844 -154.060971 
L 160.208974 -154.495127 
L 158.679509 -154.634549 
L 157.150043 -154.468512 
L 155.620578 -153.989634 
L 154.091112 -153.194027 
L 152.561647 -152.081382 
L 151.032181 -150.654969 
L 149.502716 -148.92158 
L 147.97325 -146.891401 
L 146.443785 -144.577816 
L 144.914319 -141.997168 
L 143.384854 -139.168466 
L 141.855388 -136.113054 
L 140.325923 -132.854256 
L 138.796457 -129.417002 
L 137.266992 -125.827434 
L 135.737526 -122.112521 
L 134.208061 -118.299673 
L 132.678595 -114.416361 
L 131.14913 -110.489764 
L 129.619664 -106.546428 
L 128.090199 -102.611955 
L 126.560733 -98.71072 
L 125.031268 -94.865619 
L 123.501802 -91.097853 
L 121.972337 -87.426743 
L 120.442871 -83.869587 
L 118.913406 -80.44155 
L 117.38394 -77.155594 
L 115.854475 -74.022443 
L 114.325009 -71.05059 
L 112.795544 -68.246329 
L 111.266078 -65.613825 
L 109.736613 -63.155216 
L 108.207147 -60.870736 
L 106.677682 -58.758861 
L 105.148216 -56.816479 
L 103.618751 -55.039066 
L 102.089285 -53.420877 
L 100.55982 -51.95514 
L 99.030354 -50.63425 
L 97.500889 -49.44996 
L 95.971423 -48.393563 
L 94.441958 -47.456069 
L 92.912492 -46.628356 
L 91.383026 -45.901324 
L 89.853561 -45.266014 
L 88.324095 -44.713721 
L 86.79463 -44.23608 
L 85.265164 -43.825146 
L 83.735699 -43.473444 
L 82.206233 -43.174006 
L 80.676768 -42.920402 
L 79.147302 -42.706745 
L 77.617837 -42.527692 
L 76.088371 -42.378432 
L 74.558906 -42.254669 
L 73.02944 -42.152595 
L 71.499975 -42.068858 
L 69.970509 -42.000534 
L 68.441044 -41.945086 
L 66.911578 -41.900332 
L 65.382113 -41.864405 
L 63.852647 -41.835722 
L 62.323182 -41.812947 
z
" id="m136f1b4966" style="stroke:#dd8452;"/>
    </defs>
    <g clip-path="url(#p7a37080306)">
     <use style="fill:#dd8452;fill-opacity:0.25;stroke:#dd8452;" x="0" xlink:href="#m136f1b4966" y="266.374219"/>
    </g>
   </g>
   <g id="patch_3">
    <path d="M 47.105 224.64 
L 47.105 7.2 
" style="fill:none;stroke:#ffffff;stroke-linecap:square;stroke-linejoin:miter;stroke-width:1.25;"/>
   </g>
   <g id="patch_4">
    <path d="M 381.905 224.64 
L 381.905 7.2 
" style="fill:none;stroke:#ffffff;stroke-linecap:square;stroke-linejoin:miter;stroke-width:1.25;"/>
   </g>
   <g id="patch_5">
    <path d="M 47.105 224.64 
L 381.905 224.64 
" style="fill:none;stroke:#ffffff;stroke-linecap:square;stroke-linejoin:miter;stroke-width:1.25;"/>
   </g>
   <g id="patch_6">
    <path d="M 47.105 7.2 
L 381.905 7.2 
" style="fill:none;stroke:#ffffff;stroke-linecap:square;stroke-linejoin:miter;stroke-width:1.25;"/>
   </g>
  </g>
 </g>
 <defs>
  <clipPath id="p7a37080306">
   <rect height="217.44" width="334.8" x="47.105" y="7.2"/>
  </clipPath>
 </defs>
</svg>
